<?xml version="1.0" encoding="UTF-8" standalone="no"?>
<!DOCTYPE svg PUBLIC "-//W3C//DTD SVG 1.1//EN"
 "http://www.w3.org/Graphics/SVG/1.1/DTD/svg11.dtd">
<!-- Generated by graphviz version 2.40.1 (20161225.0304)
 -->
<!-- Title: dependencies Pages: 1 -->
<svg width="1133pt" height="284pt"
 viewBox="0.00 0.00 1133.00 284.00" xmlns="http://www.w3.org/2000/svg" xmlns:xlink="http://www.w3.org/1999/xlink">
<g id="graph0" class="graph" transform="scale(1 1) rotate(0) translate(4 280)">
<title>dependencies</title>
<polygon fill="#ffffff" stroke="transparent" points="-4,4 -4,-280 1129,-280 1129,4 -4,4"/>
<text text-anchor="start" x="541.5091" y="-42.4" font-family="sans-serif" font-weight="bold" font-size="14.00" fill="#000000">Legend</text>
<polygon fill="#ffffb3" stroke="transparent" points="328.5,-10 328.5,-30 348.5,-30 348.5,-10 328.5,-10"/>
<text text-anchor="start" x="352.129" y="-15.4" font-family="sans-serif" font-size="14.00" fill="#000000"> &#160;Declarations</text>
<polygon fill="#8dd3c7" stroke="transparent" points="441.5,-10 441.5,-30 461.5,-30 461.5,-10 441.5,-10"/>
<text text-anchor="start" x="465.2251" y="-15.4" font-family="sans-serif" font-size="14.00" fill="#000000"> &#160;Module</text>
<polygon fill="#80b1d3" stroke="transparent" points="527.5,-10 527.5,-30 547.5,-30 547.5,-10 527.5,-10"/>
<text text-anchor="start" x="551.2812" y="-15.4" font-family="sans-serif" font-size="14.00" fill="#000000"> &#160;Bootstrap</text>
<polygon fill="#fdb462" stroke="transparent" points="624.5,-10 624.5,-30 644.5,-30 644.5,-10 624.5,-10"/>
<text text-anchor="start" x="648.1732" y="-15.4" font-family="sans-serif" font-size="14.00" fill="#000000"> &#160;Providers</text>
<polygon fill="#fb8072" stroke="transparent" points="720.5,-10 720.5,-30 740.5,-30 740.5,-10 720.5,-10"/>
<text text-anchor="start" x="744.2258" y="-15.4" font-family="sans-serif" font-size="14.00" fill="#000000"> &#160;Exports</text>
<g id="clust1" class="cluster">
<title>cluster_DetailModule</title>
<polygon fill="none" stroke="#000000" stroke-dasharray="1,5" points="8,-70 8,-268 1117,-268 1117,-70 8,-70"/>
</g>
<g id="clust2" class="cluster">
<title>cluster_DetailModule_declarations</title>
<polygon fill="none" stroke="#000000" points="138,-78 138,-130 1109,-130 1109,-78 138,-78"/>
</g>
<g id="clust8" class="cluster">
<title>cluster_DetailModule_imports</title>
<polygon fill="none" stroke="#000000" points="16,-78 16,-130 130,-130 130,-78 16,-78"/>
</g>
<g id="clust9" class="cluster">
<title>cluster_DetailModule_exports</title>
<polygon fill="none" stroke="#000000" points="422,-208 422,-260 558,-260 558,-208 422,-208"/>
</g>
<!-- DetailCommentComponent -->
<g id="node1" class="node">
<title>DetailCommentComponent</title>
<polygon fill="#ffffb3" stroke="#000000" points="1101.2632,-122 930.7368,-122 930.7368,-86 1101.2632,-86 1101.2632,-122"/>
<text text-anchor="middle" x="1016" y="-99.8" font-family="Times,serif" font-size="14.00" fill="#000000">DetailCommentComponent</text>
</g>
<!-- DetailModule -->
<g id="node6" class="node">
<title>DetailModule</title>
<polygon fill="#8dd3c7" stroke="#000000" points="536.7577,-187 533.7577,-191 512.7577,-191 509.7577,-187 443.2423,-187 443.2423,-151 536.7577,-151 536.7577,-187"/>
<text text-anchor="middle" x="490" y="-164.8" font-family="Times,serif" font-size="14.00" fill="#000000">DetailModule</text>
</g>
<!-- DetailCommentComponent&#45;&gt;DetailModule -->
<g id="edge1" class="edge">
<title>DetailCommentComponent&#45;&gt;DetailModule</title>
<path fill="none" stroke="#000000" d="M1016,-122.2843C1016,-143.3211 1016,-175 1016,-175 1016,-175 547.1419,-175 547.1419,-175"/>
<polygon fill="#000000" stroke="#000000" points="547.1419,-171.5001 537.1419,-175 547.1419,-178.5001 547.1419,-171.5001"/>
</g>
<!-- DetailCommentInputComponent -->
<g id="node2" class="node">
<title>DetailCommentInputComponent</title>
<polygon fill="#ffffb3" stroke="#000000" points="912.3144,-122 711.6856,-122 711.6856,-86 912.3144,-86 912.3144,-122"/>
<text text-anchor="middle" x="812" y="-99.8" font-family="Times,serif" font-size="14.00" fill="#000000">DetailCommentInputComponent</text>
</g>
<!-- DetailCommentInputComponent&#45;&gt;DetailModule -->
<g id="edge2" class="edge">
<title>DetailCommentInputComponent&#45;&gt;DetailModule</title>
<path fill="none" stroke="#000000" d="M812,-122.0225C812,-139.3734 812,-163 812,-163 812,-163 546.8216,-163 546.8216,-163"/>
<polygon fill="#000000" stroke="#000000" points="546.8216,-159.5001 536.8216,-163 546.8215,-166.5001 546.8216,-159.5001"/>
</g>
<!-- DetailCommentListComponent -->
<g id="node3" class="node">
<title>DetailCommentListComponent</title>
<polygon fill="#ffffb3" stroke="#000000" points="694.0419,-122 501.9581,-122 501.9581,-86 694.0419,-86 694.0419,-122"/>
<text text-anchor="middle" x="598" y="-99.8" font-family="Times,serif" font-size="14.00" fill="#000000">DetailCommentListComponent</text>
</g>
<!-- DetailCommentListComponent&#45;&gt;DetailModule -->
<g id="edge3" class="edge">
<title>DetailCommentListComponent&#45;&gt;DetailModule</title>
<path fill="none" stroke="#000000" d="M519.304,-122.1061C519.304,-122.1061 519.304,-140.991 519.304,-140.991"/>
<polygon fill="#000000" stroke="#000000" points="515.8041,-140.9909 519.304,-150.991 522.8041,-140.991 515.8041,-140.9909"/>
</g>
<!-- DetailCommentLoginComponent -->
<g id="node4" class="node">
<title>DetailCommentLoginComponent</title>
<polygon fill="#ffffb3" stroke="#000000" points="484.2063,-122 279.7937,-122 279.7937,-86 484.2063,-86 484.2063,-122"/>
<text text-anchor="middle" x="382" y="-99.8" font-family="Times,serif" font-size="14.00" fill="#000000">DetailCommentLoginComponent</text>
</g>
<!-- DetailCommentLoginComponent&#45;&gt;DetailModule -->
<g id="edge4" class="edge">
<title>DetailCommentLoginComponent&#45;&gt;DetailModule</title>
<path fill="none" stroke="#000000" d="M463.6122,-122.1061C463.6122,-122.1061 463.6122,-140.991 463.6122,-140.991"/>
<polygon fill="#000000" stroke="#000000" points="460.1123,-140.9909 463.6122,-150.991 467.1123,-140.991 460.1123,-140.9909"/>
</g>
<!-- DetailComponent -->
<g id="node5" class="node">
<title>DetailComponent</title>
<polygon fill="#ffffb3" stroke="#000000" points="261.5409,-122 146.4591,-122 146.4591,-86 261.5409,-86 261.5409,-122"/>
<text text-anchor="middle" x="204" y="-99.8" font-family="Times,serif" font-size="14.00" fill="#000000">DetailComponent</text>
</g>
<!-- DetailComponent&#45;&gt;DetailModule -->
<g id="edge5" class="edge">
<title>DetailComponent&#45;&gt;DetailModule</title>
<path fill="none" stroke="#000000" d="M204,-122.0225C204,-139.3734 204,-163 204,-163 204,-163 433.0932,-163 433.0932,-163"/>
<polygon fill="#000000" stroke="#000000" points="433.0932,-166.5001 443.0932,-163 433.0931,-159.5001 433.0932,-166.5001"/>
</g>
<!-- DetailComponent  -->
<g id="node8" class="node">
<title>DetailComponent </title>
<polygon fill="#fb8072" stroke="#000000" points="549.54,-252 430.46,-252 430.46,-216 549.54,-216 549.54,-252"/>
<text text-anchor="middle" x="490" y="-229.8" font-family="Times,serif" font-size="14.00" fill="#000000">DetailComponent </text>
</g>
<!-- DetailModule&#45;&gt;DetailComponent  -->
<g id="edge7" class="edge">
<title>DetailModule&#45;&gt;DetailComponent </title>
<path fill="none" stroke="#000000" stroke-dasharray="5,2" d="M490,-187.1061C490,-187.1061 490,-205.991 490,-205.991"/>
<polygon fill="#000000" stroke="#000000" points="486.5001,-205.9909 490,-215.991 493.5001,-205.991 486.5001,-205.9909"/>
</g>
<!-- SharedModule -->
<g id="node7" class="node">
<title>SharedModule</title>
<polygon fill="#8dd3c7" stroke="#000000" points="122.4231,-122 119.4231,-126 98.4231,-126 95.4231,-122 23.5769,-122 23.5769,-86 122.4231,-86 122.4231,-122"/>
<text text-anchor="middle" x="73" y="-99.8" font-family="Times,serif" font-size="14.00" fill="#000000">SharedModule</text>
</g>
<!-- SharedModule&#45;&gt;DetailModule -->
<g id="edge6" class="edge">
<title>SharedModule&#45;&gt;DetailModule</title>
<path fill="none" stroke="#000000" d="M73,-122.2843C73,-143.3211 73,-175 73,-175 73,-175 432.9754,-175 432.9754,-175"/>
<polygon fill="#000000" stroke="#000000" points="432.9754,-178.5001 442.9754,-175 432.9754,-171.5001 432.9754,-178.5001"/>
</g>
</g>
</svg>
